<svg data-v-423bf9ae="" xmlns="http://www.w3.org/2000/svg" viewBox="0 0 616 90" class="iconLeft"><!----><!----><!----><g data-v-423bf9ae="" id="c8d084fe-adb5-433d-8ca8-37a518ddd990" fill="#000000" transform="matrix(4.415010987956055,0,0,4.415010987956055,113.70192639909789,-3.4988967690019876)"><path d="M5.46 9.94L5.46 9.94Q7.28 10.08 8.13 10.78L8.13 10.78L8.13 10.78Q8.99 11.48 8.99 12.43L8.99 12.43L8.99 12.43Q8.99 13.73 7.97 14.44L7.97 14.44L7.97 14.44Q6.94 15.15 5.12 15.15L5.12 15.15L5.12 15.15Q4.72 15.15 4.44 15.13L4.44 15.13L4.44 15.13Q3.51 15.11 2.63 15.11L2.63 15.11L2.63 15.11Q1.19 15.11 0.48 15.15L0.48 15.15L0.48 14.87L0.48 14.87Q0.94 14.84 1.16 14.76L1.16 14.76L1.16 14.76Q1.37 14.67 1.45 14.43L1.45 14.43L1.45 14.43Q1.53 14.20 1.53 13.66L1.53 13.66L1.53 6.72L1.53 6.72Q1.53 6.19 1.45 5.95L1.45 5.95L1.45 5.95Q1.37 5.71 1.16 5.63L1.16 5.63L1.16 5.63Q0.94 5.54 0.48 5.52L0.48 5.52L0.48 5.24L0.48 5.24Q1.19 5.28 2.60 5.28L2.60 5.28L4.16 5.26L4.16 5.26Q4.44 5.25 4.80 5.25L4.80 5.25L4.80 5.25Q6.48 5.25 7.37 5.85L7.37 5.85L7.37 5.85Q8.26 6.45 8.26 7.45L8.26 7.45L8.26 7.45Q8.26 8.26 7.55 8.96L7.55 8.96L7.55 8.96Q6.85 9.66 5.46 9.91L5.46 9.91L5.46 9.94ZM4.62 5.52L4.62 5.52Q4.24 5.52 4.07 5.61L4.07 5.61L4.07 5.61Q3.89 5.71 3.82 5.96L3.82 5.96L3.82 5.96Q3.75 6.22 3.75 6.72L3.75 6.72L3.75 9.88L4.35 9.88L4.35 9.88Q5.26 9.88 5.63 9.26L5.63 9.26L5.63 9.26Q5.99 8.64 5.99 7.60L5.99 7.60L5.99 7.60Q5.99 6.55 5.66 6.03L5.66 6.03L5.66 6.03Q5.33 5.52 4.62 5.52L4.62 5.52ZM4.72 14.83L4.72 14.83Q6.66 14.83 6.66 12.38L6.66 12.38L6.66 12.38Q6.66 11.27 6.10 10.70L6.10 10.70L6.10 10.70Q5.54 10.12 4.34 10.12L4.34 10.12L3.75 10.12L3.75 13.66L3.75 13.66Q3.75 14.17 3.82 14.41L3.82 14.41L3.82 14.41Q3.89 14.64 4.09 14.73L4.09 14.73L4.09 14.73Q4.30 14.83 4.72 14.83L4.72 14.83ZM11.56 4.30L11.56 4.30Q12.15 4.30 12.49 4.58L12.49 4.58L12.49 4.58Q12.84 4.87 12.84 5.38L12.84 5.38L12.84 5.38Q12.84 5.88 12.49 6.17L12.49 6.17L12.49 6.17Q12.15 6.45 11.56 6.45L11.56 6.45L11.56 6.45Q10.98 6.45 10.63 6.17L10.63 6.17L10.63 6.17Q10.29 5.88 10.29 5.38L10.29 5.38L10.29 5.38Q10.29 4.87 10.63 4.58L10.63 4.58L10.63 4.58Q10.98 4.30 11.56 4.30L11.56 4.30ZM12.66 7.76L12.66 13.85L12.66 13.85Q12.66 14.42 12.86 14.64L12.86 14.64L12.86 14.64Q13.06 14.85 13.55 14.85L13.55 14.85L13.55 15.15L13.55 15.15Q12.15 15.09 11.69 15.09L11.69 15.09L11.69 15.09Q11.26 15.09 9.74 15.15L9.74 15.15L9.74 14.85L9.74 14.85Q10.25 14.85 10.44 14.64L10.44 14.64L10.44 14.64Q10.64 14.42 10.64 13.85L10.64 13.85L10.64 9.44L10.64 9.44Q10.64 8.79 10.44 8.50L10.44 8.50L10.44 8.50Q10.25 8.20 9.74 8.20L9.74 8.20L9.74 7.91L9.74 7.91Q10.19 7.95 10.61 7.95L10.61 7.95L10.61 7.95Q11.86 7.95 12.66 7.76L12.66 7.76ZM18.96 7.71L18.96 7.71Q20.09 7.71 20.79 8.64L20.79 8.64L20.79 8.64Q21.49 9.58 21.49 11.34L21.49 11.34L21.49 11.34Q21.49 13.40 20.59 14.37L20.59 14.37L20.59 14.37Q19.70 15.34 18.28 15.34L18.28 15.34L18.28 15.34Q17.32 15.34 16.72 14.85L16.72 14.85L16.72 14.85Q16.21 14.81 15.71 14.97L15.71 14.97L15.71 14.97Q15.20 15.12 14.91 15.37L14.91 15.37L14.70 15.25L14.70 15.25Q14.80 14.90 14.80 14.46L14.80 14.46L14.80 5.88L14.80 5.88Q14.80 5.24 14.59 4.94L14.59 4.94L14.59 4.94Q14.39 4.65 13.90 4.65L13.90 4.65L13.90 4.35L13.90 4.35Q14.34 4.40 14.77 4.40L14.77 4.40L14.77 4.40Q15.99 4.40 16.81 4.20L16.81 4.20L16.81 9.04L16.81 9.04Q17.11 8.40 17.67 8.06L17.67 8.06L17.67 8.06Q18.23 7.71 18.96 7.71L18.96 7.71ZM17.85 15.05L17.85 15.05Q18.62 15.05 19.00 14.18L19.00 14.18L19.00 14.18Q19.38 13.31 19.38 11.54L19.38 11.54L19.38 11.54Q19.38 9.81 19.05 9.06L19.05 9.06L19.05 9.06Q18.73 8.32 18.13 8.32L18.13 8.32L18.13 8.32Q17.68 8.32 17.31 8.64L17.31 8.64L17.31 8.64Q16.94 8.97 16.81 9.53L16.81 9.53L16.81 14.67L16.81 14.67Q17.28 15.05 17.85 15.05L17.85 15.05ZM25.21 4.19L25.21 13.85L25.21 13.85Q25.21 14.42 25.41 14.64L25.41 14.64L25.41 14.64Q25.61 14.85 26.11 14.85L26.11 14.85L26.11 15.15L26.11 15.15Q24.65 15.09 24.23 15.09L24.23 15.09L24.23 15.09Q23.76 15.09 22.30 15.15L22.30 15.15L22.30 14.85L22.30 14.85Q22.79 14.85 22.99 14.64L22.99 14.64L22.99 14.64Q23.20 14.42 23.20 13.85L23.20 13.85L23.20 5.87L23.20 5.87Q23.20 5.22 22.99 4.93L22.99 4.93L22.99 4.93Q22.79 4.63 22.30 4.63L22.30 4.63L22.30 4.34L22.30 4.34Q22.75 4.38 23.17 4.38L23.17 4.38L23.17 4.38Q24.39 4.38 25.21 4.19L25.21 4.19ZM30.83 14.20L30.83 14.20Q31.98 14.20 32.68 13.08L32.68 13.08L32.93 13.16L32.93 13.16Q32.65 14.07 31.93 14.71L31.93 14.71L31.93 14.71Q31.21 15.34 30.13 15.34L30.13 15.34L30.13 15.34Q28.64 15.34 27.77 14.40L27.77 14.40L27.77 14.40Q26.89 13.45 26.89 11.61L26.89 11.61L26.89 11.61Q26.89 9.72 27.83 8.71L27.83 8.71L27.83 8.71Q28.77 7.71 30.32 7.71L30.32 7.71L30.32 7.71Q32.96 7.71 32.96 10.82L32.96 10.82L29.02 10.82L29.02 10.82Q29.01 11.03 29.01 11.48L29.01 11.48L29.01 11.48Q29.01 12.40 29.27 13.02L29.27 13.02L29.27 13.02Q29.53 13.64 29.94 13.92L29.94 13.92L29.94 13.92Q30.35 14.20 30.83 14.20L30.83 14.20ZM30.24 8.01L30.24 8.01Q29.74 8.01 29.41 8.63L29.41 8.63L29.41 8.63Q29.08 9.25 28.99 10.56L28.99 10.56L31.19 10.56L31.19 10.56Q31.22 9.45 30.97 8.73L30.97 8.73L30.97 8.73Q30.73 8.01 30.24 8.01L30.24 8.01ZM46.47 14.36L46.66 14.53L46.66 14.53Q46.28 14.97 45.85 15.15L45.85 15.15L45.85 15.15Q45.42 15.34 44.80 15.34L44.80 15.34L44.80 15.34Q43.99 15.34 43.52 15.00L43.52 15.00L43.52 15.00Q43.05 14.66 42.91 13.83L42.91 13.83L42.66 12.43L42.66 12.43Q42.48 11.41 42.22 10.93L42.22 10.93L42.22 10.93Q41.96 10.44 41.36 10.44L41.36 10.44L40.45 10.44L40.45 13.66L40.45 13.66Q40.45 14.20 40.52 14.43L40.52 14.43L40.52 14.43Q40.60 14.67 40.81 14.76L40.81 14.76L40.81 14.76Q41.02 14.84 41.50 14.87L41.50 14.87L41.50 15.15L41.50 15.15Q40.74 15.11 39.38 15.11L39.38 15.11L39.38 15.11Q37.88 15.11 37.17 15.15L37.17 15.15L37.17 14.87L37.17 14.87Q37.63 14.84 37.85 14.76L37.85 14.76L37.85 14.76Q38.07 14.67 38.14 14.43L38.14 14.43L38.14 14.43Q38.22 14.20 38.22 13.66L38.22 13.66L38.22 6.72L38.22 6.72Q38.22 6.19 38.14 5.95L38.14 5.95L38.14 5.95Q38.07 5.71 37.85 5.63L37.85 5.63L37.85 5.63Q37.63 5.54 37.17 5.52L37.17 5.52L37.17 5.24L37.17 5.24Q37.88 5.28 39.30 5.28L39.30 5.28L40.85 5.26L40.85 5.26Q41.13 5.25 41.50 5.25L41.50 5.25L41.50 5.25Q43.43 5.25 44.40 5.88L44.40 5.88L44.40 5.88Q45.37 6.51 45.37 7.69L45.37 7.69L45.37 7.69Q45.37 8.68 44.65 9.44L44.65 9.44L44.65 9.44Q43.92 10.19 42.24 10.39L42.24 10.39L42.24 10.39Q43.50 10.50 44.11 10.93L44.11 10.93L44.11 10.93Q44.73 11.37 44.91 12.24L44.91 12.24L45.23 13.68L45.23 13.68Q45.35 14.24 45.49 14.46L45.49 14.46L45.49 14.46Q45.64 14.69 45.91 14.69L45.91 14.69L45.91 14.69Q46.07 14.67 46.19 14.60L46.19 14.60L46.19 14.60Q46.31 14.53 46.47 14.36L46.47 14.36ZM41.31 5.52L41.31 5.52Q40.94 5.52 40.76 5.61L40.76 5.61L40.76 5.61Q40.59 5.71 40.52 5.96L40.52 5.96L40.52 5.96Q40.45 6.22 40.45 6.72L40.45 6.72L40.45 10.16L41.05 10.16L41.05 10.16Q42.20 10.16 42.62 9.55L42.62 9.55L42.62 9.55Q43.05 8.95 43.05 7.84L43.05 7.84L43.05 7.84Q43.05 6.69 42.64 6.10L42.64 6.10L42.64 6.10Q42.24 5.52 41.31 5.52L41.31 5.52ZM50.83 14.20L50.83 14.20Q51.98 14.20 52.68 13.08L52.68 13.08L52.93 13.16L52.93 13.16Q52.65 14.07 51.93 14.71L51.93 14.71L51.93 14.71Q51.21 15.34 50.13 15.34L50.13 15.34L50.13 15.34Q48.65 15.34 47.77 14.40L47.77 14.40L47.77 14.40Q46.90 13.45 46.90 11.61L46.90 11.61L46.90 11.61Q46.90 9.72 47.84 8.71L47.84 8.71L47.84 8.71Q48.78 7.71 50.33 7.71L50.33 7.71L50.33 7.71Q52.96 7.71 52.96 10.82L52.96 10.82L49.03 10.82L49.03 10.82Q49.01 11.03 49.01 11.48L49.01 11.48L49.01 11.48Q49.01 12.40 49.27 13.02L49.27 13.02L49.27 13.02Q49.53 13.64 49.95 13.92L49.95 13.92L49.95 13.92Q50.36 14.20 50.83 14.20L50.83 14.20ZM50.25 8.01L50.25 8.01Q49.74 8.01 49.41 8.63L49.41 8.63L49.41 8.63Q49.08 9.25 49 10.56L49 10.56L51.20 10.56L51.20 10.56Q51.23 9.45 50.98 8.73L50.98 8.73L50.98 8.73Q50.74 8.01 50.25 8.01L50.25 8.01ZM55.59 4.30L55.59 4.30Q56.18 4.30 56.52 4.58L56.52 4.58L56.52 4.58Q56.87 4.87 56.87 5.38L56.87 5.38L56.87 5.38Q56.87 5.88 56.52 6.17L56.52 6.17L56.52 6.17Q56.18 6.45 55.59 6.45L55.59 6.45L55.59 6.45Q55.01 6.45 54.66 6.17L54.66 6.17L54.66 6.17Q54.32 5.88 54.32 5.38L54.32 5.38L54.32 5.38Q54.32 4.87 54.66 4.58L54.66 4.58L54.66 4.58Q55.01 4.30 55.59 4.30L55.59 4.30ZM56.69 7.76L56.69 13.85L56.69 13.85Q56.69 14.42 56.89 14.64L56.89 14.64L56.89 14.64Q57.09 14.85 57.58 14.85L57.58 14.85L57.58 15.15L57.58 15.15Q56.18 15.09 55.72 15.09L55.72 15.09L55.72 15.09Q55.29 15.09 53.77 15.15L53.77 15.15L53.77 14.85L53.77 14.85Q54.28 14.85 54.47 14.64L54.47 14.64L54.47 14.64Q54.67 14.42 54.67 13.85L54.67 13.85L54.67 9.44L54.67 9.44Q54.67 8.79 54.47 8.50L54.47 8.50L54.47 8.50Q54.28 8.20 53.77 8.20L53.77 8.20L53.77 7.91L53.77 7.91Q54.22 7.95 54.64 7.95L54.64 7.95L54.64 7.95Q55.89 7.95 56.69 7.76L56.69 7.76ZM69.44 13.85L69.44 13.85Q69.44 14.42 69.64 14.64L69.64 14.64L69.64 14.64Q69.85 14.85 70.34 14.85L70.34 14.85L70.34 15.15L70.34 15.15Q68.94 15.09 68.49 15.09L68.49 15.09L68.49 15.09Q68.10 15.09 66.75 15.15L66.75 15.15L66.75 14.85L66.75 14.85Q67.13 14.85 67.28 14.64L67.28 14.64L67.28 14.64Q67.42 14.43 67.42 13.85L67.42 13.85L67.42 9.49L67.42 9.49Q67.42 8.90 67.25 8.62L67.25 8.62L67.25 8.62Q67.07 8.33 66.58 8.33L66.58 8.33L66.58 8.33Q66.07 8.33 65.68 8.76L65.68 8.76L65.68 8.76Q65.30 9.20 65.23 9.83L65.23 9.83L65.23 10.08L65.23 13.85L65.23 13.85Q65.23 14.42 65.40 14.64L65.40 14.64L65.40 14.64Q65.58 14.85 66.04 14.85L66.04 14.85L66.04 15.15L66.04 15.15Q64.69 15.09 64.27 15.09L64.27 15.09L64.27 15.09Q63.88 15.09 62.54 15.15L62.54 15.15L62.54 14.85L62.54 14.85Q62.92 14.85 63.06 14.64L63.06 14.64L63.06 14.64Q63.21 14.42 63.21 13.85L63.21 13.85L63.21 9.49L63.21 9.49Q63.21 8.90 63.06 8.62L63.06 8.62L63.06 8.62Q62.90 8.33 62.45 8.33L62.45 8.33L62.45 8.33Q61.89 8.33 61.49 8.80L61.49 8.80L61.49 8.80Q61.10 9.27 61.10 9.95L61.10 9.95L61.10 13.85L61.10 13.85Q61.10 14.42 61.24 14.64L61.24 14.64L61.24 14.64Q61.39 14.85 61.77 14.85L61.77 14.85L61.77 15.15L61.77 15.15Q60.54 15.09 60.12 15.09L60.12 15.09L60.12 15.09Q59.70 15.09 58.18 15.15L58.18 15.15L58.18 14.85L58.18 14.85Q58.69 14.85 58.88 14.64L58.88 14.64L58.88 14.64Q59.08 14.42 59.08 13.85L59.08 13.85L59.08 9.44L59.08 9.44Q59.08 8.79 58.88 8.50L58.88 8.50L58.88 8.50Q58.69 8.20 58.18 8.20L58.18 8.20L58.18 7.91L58.18 7.91Q58.63 7.95 59.05 7.95L59.05 7.95L59.05 7.95Q60.30 7.95 61.10 7.76L61.10 7.76L61.10 9.02L61.10 9.02Q61.71 7.71 63.27 7.71L63.27 7.71L63.27 7.71Q64.33 7.71 64.81 8.26L64.81 8.26L64.81 8.26Q65.07 8.54 65.16 9.10L65.16 9.10L65.16 9.10Q65.52 8.34 66.11 8.03L66.11 8.03L66.11 8.03Q66.70 7.71 67.48 7.71L67.48 7.71L67.48 7.71Q68.54 7.71 69.02 8.26L69.02 8.26L69.02 8.26Q69.24 8.51 69.34 8.95L69.34 8.95L69.34 8.95Q69.44 9.38 69.44 10.08L69.44 10.08L69.44 13.85ZM72.70 15.25L72.70 15.25Q71.81 15.25 71.36 14.78L71.36 14.78L71.36 14.78Q70.92 14.32 70.92 13.57L70.92 13.57L70.92 13.57Q70.92 12.94 71.25 12.52L71.25 12.52L71.25 12.52Q71.58 12.11 72.05 11.89L72.05 11.89L72.05 11.89Q72.52 11.66 73.25 11.41L73.25 11.41L73.25 11.41Q74.02 11.14 74.38 10.93L74.38 10.93L74.38 10.93Q74.73 10.71 74.73 10.33L74.73 10.33L74.73 9.24L74.73 9.24Q74.73 8.65 74.46 8.32L74.46 8.32L74.46 8.32Q74.19 7.99 73.61 7.99L73.61 7.99L73.61 7.99Q72.94 7.99 72.59 8.33L72.59 8.33L72.59 8.33Q72.98 8.47 73.20 8.75L73.20 8.75L73.20 8.75Q73.42 9.03 73.42 9.41L73.42 9.41L73.42 9.41Q73.42 9.88 73.09 10.16L73.09 10.16L73.09 10.16Q72.77 10.44 72.31 10.44L72.31 10.44L72.31 10.44Q71.82 10.44 71.55 10.14L71.55 10.14L71.55 10.14Q71.29 9.83 71.29 9.37L71.29 9.37L71.29 9.37Q71.29 8.97 71.48 8.70L71.48 8.70L71.48 8.70Q71.67 8.43 72.06 8.19L72.06 8.19L72.06 8.19Q72.44 7.97 72.99 7.84L72.99 7.84L72.99 7.84Q73.54 7.71 74.20 7.71L74.20 7.71L74.20 7.71Q74.89 7.71 75.39 7.85L75.39 7.85L75.39 7.85Q75.89 7.99 76.23 8.33L76.23 8.33L76.23 8.33Q76.54 8.64 76.64 9.09L76.64 9.09L76.64 9.09Q76.75 9.53 76.75 10.30L76.75 10.30L76.75 14.11L76.75 14.11Q76.75 14.45 76.81 14.59L76.81 14.59L76.81 14.59Q76.87 14.73 77.06 14.73L77.06 14.73L77.06 14.73Q77.27 14.73 77.56 14.49L77.56 14.49L77.70 14.73L77.70 14.73Q77.07 15.25 76.16 15.25L76.16 15.25L76.16 15.25Q75.39 15.25 75.08 14.94L75.08 14.94L75.08 14.94Q74.77 14.63 74.76 14.11L74.76 14.11L74.76 14.11Q74.06 15.25 72.70 15.25L72.70 15.25ZM73.78 14.35L73.78 14.35Q74.33 14.35 74.73 13.78L74.73 13.78L74.73 10.91L74.73 10.91Q74.56 11.19 74.02 11.52L74.02 11.52L74.02 11.52Q73.47 11.87 73.19 12.22L73.19 12.22L73.19 12.22Q72.91 12.57 72.91 13.23L72.91 13.23L72.91 13.23Q72.91 13.80 73.15 14.08L73.15 14.08L73.15 14.08Q73.39 14.35 73.78 14.35L73.78 14.35ZM84.74 9.25L84.74 9.25Q84.46 9.25 84.27 9.06L84.27 9.06L84.27 9.06Q84.07 8.88 84.07 8.53L84.07 8.53L84.07 8.53Q84.07 8.19 84.24 7.84L84.24 7.84L84.24 7.84Q83.90 7.98 83.69 8.15L83.69 8.15L83.69 8.15Q83.47 8.33 83.31 8.60L83.31 8.60L83.31 8.60Q83.75 9.11 83.75 9.94L83.75 9.94L83.75 9.94Q83.75 11.05 82.98 11.61L82.98 11.61L82.98 11.61Q82.22 12.17 80.96 12.17L80.96 12.17L80.71 12.17L80.71 12.17Q80.14 12.50 80.14 12.91L80.14 12.91L80.14 12.91Q80.14 13.36 80.70 13.36L80.70 13.36L82.22 13.36L82.22 13.36Q83.45 13.36 84.19 13.81L84.19 13.81L84.19 13.81Q84.92 14.27 84.92 15.20L84.92 15.20L84.92 15.20Q84.92 15.92 84.47 16.50L84.47 16.50L84.47 16.50Q84.01 17.08 83.09 17.43L83.09 17.43L83.09 17.43Q82.17 17.78 80.82 17.78L80.82 17.78L80.82 17.78Q79.46 17.78 78.64 17.44L78.64 17.44L78.64 17.44Q77.83 17.09 77.83 16.45L77.83 16.45L77.83 16.45Q77.83 16.02 78.22 15.67L78.22 15.67L78.22 15.67Q78.61 15.33 79.38 15.13L79.38 15.13L79.51 15.36L79.51 15.36Q79.00 15.78 79.00 16.32L79.00 16.32L79.00 16.32Q79.00 16.91 79.53 17.23L79.53 17.23L79.53 17.23Q80.07 17.54 81.00 17.54L81.00 17.54L81.00 17.54Q81.98 17.54 82.59 17.15L82.59 17.15L82.59 17.15Q83.20 16.76 83.20 16.04L83.20 16.04L83.20 16.04Q83.20 15.58 82.86 15.32L82.86 15.32L82.86 15.32Q82.52 15.05 81.66 15.05L81.66 15.05L80.79 15.05L80.79 15.05Q79.90 15.05 79.39 14.75L79.39 14.75L79.39 14.75Q78.89 14.45 78.89 13.83L78.89 13.83L78.89 13.83Q78.89 13.31 79.25 12.91L79.25 12.91L79.25 12.91Q79.62 12.50 80.36 12.12L80.36 12.12L80.36 12.12Q79.35 12.00 78.76 11.45L78.76 11.45L78.76 11.45Q78.18 10.91 78.18 9.94L78.18 9.94L78.18 9.94Q78.18 8.83 78.94 8.27L78.94 8.27L78.94 8.27Q79.70 7.71 80.96 7.71L80.96 7.71L80.96 7.71Q82.36 7.71 83.10 8.37L83.10 8.37L83.10 8.37Q83.37 7.99 83.76 7.77L83.76 7.77L83.76 7.77Q84.15 7.55 84.56 7.55L84.56 7.55L84.56 7.55Q84.98 7.55 85.22 7.79L85.22 7.79L85.22 7.79Q85.47 8.04 85.47 8.43L85.47 8.43L85.47 8.43Q85.47 8.82 85.25 9.04L85.25 9.04L85.25 9.04Q85.04 9.25 84.74 9.25L84.74 9.25ZM80.96 11.91L80.96 11.91Q81.35 11.91 81.56 11.47L81.56 11.47L81.56 11.47Q81.76 11.02 81.76 9.94L81.76 9.94L81.76 9.94Q81.76 8.86 81.56 8.41L81.56 8.41L81.56 8.41Q81.35 7.97 80.96 7.97L80.96 7.97L80.96 7.97Q80.57 7.97 80.37 8.41L80.37 8.41L80.37 8.41Q80.16 8.86 80.16 9.94L80.16 9.94L80.16 9.94Q80.16 11.02 80.37 11.47L80.37 11.47L80.37 11.47Q80.57 11.91 80.96 11.91L80.96 11.91ZM87.67 4.30L87.67 4.30Q88.26 4.30 88.60 4.58L88.60 4.58L88.60 4.58Q88.94 4.87 88.94 5.38L88.94 5.38L88.94 5.38Q88.94 5.88 88.60 6.17L88.60 6.17L88.60 6.17Q88.26 6.45 87.67 6.45L87.67 6.45L87.67 6.45Q87.08 6.45 86.74 6.17L86.74 6.17L86.74 6.17Q86.39 5.88 86.39 5.38L86.39 5.38L86.39 5.38Q86.39 4.87 86.74 4.58L86.74 4.58L86.74 4.58Q87.08 4.30 87.67 4.30L87.67 4.30ZM88.76 7.76L88.76 13.85L88.76 13.85Q88.76 14.42 88.96 14.64L88.96 14.64L88.96 14.64Q89.17 14.85 89.66 14.85L89.66 14.85L89.66 15.15L89.66 15.15Q88.26 15.09 87.79 15.09L87.79 15.09L87.79 15.09Q87.36 15.09 85.85 15.15L85.85 15.15L85.85 14.85L85.85 14.85Q86.35 14.85 86.55 14.64L86.55 14.64L86.55 14.64Q86.74 14.42 86.74 13.85L86.74 13.85L86.74 9.44L86.74 9.44Q86.74 8.79 86.55 8.50L86.55 8.50L86.55 8.50Q86.35 8.20 85.85 8.20L85.85 8.20L85.85 7.91L85.85 7.91Q86.30 7.95 86.72 7.95L86.72 7.95L86.72 7.95Q87.96 7.95 88.76 7.76L88.76 7.76ZM95.47 7.71L95.47 7.71Q96.53 7.71 97.01 8.26L97.01 8.26L97.01 8.26Q97.24 8.53 97.34 8.95L97.34 8.95L97.34 8.95Q97.44 9.37 97.44 10.08L97.44 10.08L97.44 13.85L97.44 13.85Q97.44 14.42 97.64 14.64L97.64 14.64L97.64 14.64Q97.85 14.85 98.34 14.85L98.34 14.85L98.34 15.15L98.34 15.15Q96.94 15.09 96.49 15.09L96.49 15.09L96.49 15.09Q96.07 15.09 94.67 15.15L94.67 15.15L94.67 14.85L94.67 14.85Q95.09 14.85 95.26 14.64L95.26 14.64L95.26 14.64Q95.42 14.42 95.42 13.85L95.42 13.85L95.42 9.49L95.42 9.49Q95.42 8.92 95.23 8.62L95.23 8.62L95.23 8.62Q95.05 8.33 94.56 8.33L94.56 8.33L94.56 8.33Q93.98 8.33 93.58 8.80L93.58 8.80L93.58 8.80Q93.17 9.27 93.17 9.95L93.17 9.95L93.17 13.85L93.17 13.85Q93.17 14.42 93.34 14.64L93.34 14.64L93.34 14.64Q93.51 14.85 93.93 14.85L93.93 14.85L93.93 15.15L93.93 15.15Q92.64 15.09 92.19 15.09L92.19 15.09L92.19 15.09Q91.77 15.09 90.26 15.15L90.26 15.15L90.26 14.85L90.26 14.85Q90.76 14.85 90.96 14.64L90.96 14.64L90.96 14.64Q91.15 14.42 91.15 13.85L91.15 13.85L91.15 9.44L91.15 9.44Q91.15 8.79 90.96 8.50L90.96 8.50L90.96 8.50Q90.76 8.20 90.26 8.20L90.26 8.20L90.26 7.91L90.26 7.91Q90.71 7.95 91.13 7.95L91.13 7.95L91.13 7.95Q92.37 7.95 93.17 7.76L93.17 7.76L93.17 9.02L93.17 9.02Q93.80 7.71 95.47 7.71L95.47 7.71ZM102.97 14.20L102.97 14.20Q104.12 14.20 104.82 13.08L104.82 13.08L105.07 13.16L105.07 13.16Q104.79 14.07 104.07 14.71L104.07 14.71L104.07 14.71Q103.35 15.34 102.27 15.34L102.27 15.34L102.27 15.34Q100.79 15.34 99.91 14.40L99.91 14.40L99.91 14.40Q99.04 13.45 99.04 11.61L99.04 11.61L99.04 11.61Q99.04 9.72 99.97 8.71L99.97 8.71L99.97 8.71Q100.91 7.71 102.47 7.71L102.47 7.71L102.47 7.71Q105.10 7.71 105.10 10.82L105.10 10.82L101.16 10.82L101.16 10.82Q101.15 11.03 101.15 11.48L101.15 11.48L101.15 11.48Q101.15 12.40 101.41 13.02L101.41 13.02L101.41 13.02Q101.67 13.64 102.08 13.92L102.08 13.92L102.08 13.92Q102.49 14.20 102.97 14.20L102.97 14.20ZM102.38 8.01L102.38 8.01Q101.88 8.01 101.55 8.63L101.55 8.63L101.55 8.63Q101.22 9.25 101.14 10.56L101.14 10.56L103.33 10.56L103.33 10.56Q103.36 9.45 103.12 8.73L103.12 8.73L103.12 8.73Q102.87 8.01 102.38 8.01L102.38 8.01ZM112.80 13.61L112.80 13.61Q112.80 14.25 112.99 14.55L112.99 14.55L112.99 14.55Q113.19 14.84 113.69 14.84L113.69 14.84L113.69 15.13L113.69 15.13Q113.26 15.09 112.83 15.09L112.83 15.09L112.83 15.09Q111.58 15.09 110.78 15.29L110.78 15.29L110.78 14.08L110.78 14.08Q110.31 15.34 108.96 15.34L108.96 15.34L108.96 15.34Q107.65 15.34 106.87 14.38L106.87 14.38L106.87 14.38Q106.09 13.43 106.11 11.49L106.11 11.49L106.11 11.49Q106.11 10.26 106.50 9.41L106.50 9.41L106.50 9.41Q106.90 8.57 107.61 8.14L107.61 8.14L107.61 8.14Q108.32 7.71 109.23 7.71L109.23 7.71L109.23 7.71Q110.25 7.71 110.78 8.25L110.78 8.25L110.78 5.87L110.78 5.87Q110.78 5.22 110.58 4.93L110.58 4.93L110.58 4.93Q110.38 4.63 109.89 4.63L109.89 4.63L109.89 4.34L109.89 4.34Q110.33 4.38 110.75 4.38L110.75 4.38L110.75 4.38Q111.97 4.38 112.80 4.19L112.80 4.19L112.80 13.61ZM109.54 14.74L109.54 14.74Q110.00 14.74 110.36 14.41L110.36 14.41L110.36 14.41Q110.71 14.07 110.78 13.50L110.78 13.50L110.78 8.60L110.78 8.60Q110.43 8.12 109.76 8.12L109.76 8.12L109.76 8.12Q109.02 8.12 108.61 8.97L108.61 8.97L108.61 8.97Q108.21 9.83 108.22 11.52L108.22 11.52L108.22 11.52Q108.21 13.23 108.55 13.99L108.55 13.99L108.55 13.99Q108.89 14.74 109.54 14.74L109.54 14.74Z"></path></g><defs data-v-423bf9ae=""><linearGradient data-v-423bf9ae="" gradientTransform="rotate(25)" id="a2f1583c-0244-427d-afa2-c812b30e0ead" x1="0%" y1="0%" x2="100%" y2="0%"><stop data-v-423bf9ae="" offset="0%" style="stop-color: rgb(148, 80, 105); stop-opacity: 1;"></stop><stop data-v-423bf9ae="" offset="100%" style="stop-color: rgb(134, 200, 102); stop-opacity: 1;"></stop></linearGradient></defs><g data-v-423bf9ae="" id="e59c2702-2d3e-4cf1-8618-e55e19076e6d" transform="matrix(2.994410458179972,0,0,2.994410458179972,0.08943266912044834,-1.9385669710569857)" stroke="none" fill="url(#a2f1583c-0244-427d-afa2-c812b30e0ead)"><path d="M17.572 23.933l4.106 7.095L32 13.189h-8.981V7.582L11.51.972 0 7.582v13.222l11.51 6.611 6.062-3.482zm10.96-8.744l-6.855 11.846-6.855-11.846h13.71z"></path></g><!----></svg>